<svg xmlns="http://www.w3.org/2000/svg" width="226.48761mm" height="140.6741mm" viewBox="0 0 226.48761 140.6741"><g style="stroke-width:.198308"><g style="stroke-width:.0230338"><path d="M0 0h.007l.342-2.725h1.724L1.384.348 3.261 3.07a1.177 1.177 0 1 1-.696 1.073c0-.38.182-.715.462-.93h-1.36L.173.686H.165l.613 2.527H-.829l-1.437-5.938H-.66z" style="fill:#fff;fill-opacity:1;fill-rule:nonzero;stroke:none;stroke-width:.0230338" transform="matrix(15.31563 0 0 -15.31563 45.79 90.21)"/></g><g style="stroke-width:.0230338"><path d="m0 0 .34 1.405H-.866L.23 5.935h-1.605L-2.81 0Z" style="fill:#fff;fill-opacity:1;fill-rule:nonzero;stroke:none;stroke-width:.0230338" transform="matrix(15.31563 0 0 -15.31563 210.167 131.901)"/></g><g style="stroke-width:.0230338"><path d="M0 0c2.373 1.467 3.788 3.858 1.282 5.302Z" style="fill:#fff;fill-opacity:1;fill-rule:nonzero;stroke:none;stroke-width:.0230338" transform="matrix(15.31563 0 0 -15.31563 85.274 131.656)"/></g><g style="stroke-width:.0230338"><path d="M0 0c.203 1.058-.313 1.305-.929 1.419l.014.058C-.057 1.472.39 2.07.526 2.776.738 3.87.138 4.247-1.61 4.247h-.949C-.28 2.404-1.254-.246-4.854-1.69h1.806C-1.023-1.69-.214-1.12 0 0" style="fill:#fff;fill-opacity:1;fill-rule:nonzero;stroke:none;stroke-width:.0230338" transform="matrix(15.31563 0 0 -15.31563 162.675 106.026)"/></g><g style="stroke-width:.0230338"><path d="M0 0h-1.637l1.159 4.794h.432L-1.142.264H.064Zm-3.416 3.176a3.052 3.052 0 0 1-.504 1.615c.867-.032 1.128-.184 1.206-.278.085-.103.062-.333.028-.509-.096-.498-.341-.776-.73-.828m.203-1.949v-.001C-3.317.676-3.578.093-5.27.01c.775.58 1.329 1.247 1.62 1.961.233-.046.371-.104.421-.177.029-.043.09-.185.016-.567m-8.18-1.23h-.432l1.16 4.797h.434zm3.101 4.797h.281l-1.501-2.176.589-2.621h-.509l-.297 2.366Zm1.215-.653L-7.911.692l-.379 1.689Zm.533 2.761a.605.605 0 0 0 .488-.966h-.766l.151-.122-.026-.103c-.031.009-.062.017-.093.031l-.055.024-.064.05a.602.602 0 0 0-.24.479c0 .334.271.607.605.607m1.026-3.734c.009-.6-.4-1.315-1.101-1.988l.7 2.897c.262-.276.396-.58.401-.909M.307 1.405l1.096 4.53h-2.778l-.253-1.046a1.34 1.34 0 0 1-.207.349c-.403.49-1.129.698-2.427.698h-.574c.024.116.04.235.04.359a1.75 1.75 0 0 1-1.748 1.747 1.749 1.749 0 0 1-1.708-2.107h-3.31l-1.712-7.078h5.776l-.001.003H-5.7c.968 0 2.046.107 2.784.703l-.17-.703H.897l.617 2.545z" style="fill:#fff;fill-opacity:1;fill-rule:nonzero;stroke:none;stroke-width:.0230338" transform="matrix(15.31563 0 0 -15.31563 203.3 123.168)"/></g><g style="stroke-width:.0230338"><path d="m0 0-.342 2.725h.008-.015L-1.009 0h-1.606l1.436 5.937H.428l-.612-2.526h-.008.008l-.019-.018.003.018h.024l1.494 2.526H3.01L1.034 3.073 1.724 0Z" style="fill:#19255f;fill-opacity:1;fill-rule:nonzero;stroke:none;stroke-width:.0230338" transform="matrix(15.31563 0 0 -15.31563 51.14 131.94)"/></g><g style="stroke-width:.0230338"><path d="m0 0 1.435 5.935h1.606l-1.097-4.53h1.207L2.81 0Z" style="fill:#19255f;fill-opacity:1;fill-rule:nonzero;stroke:none;stroke-width:.0230338" transform="matrix(15.31563 0 0 -15.31563 167.127 131.897)"/></g><g style="stroke-width:.0230338"><path d="m0 0-1.282-5.302C1.09-3.835 2.505-1.444 0 0" style="fill:#19255f;fill-opacity:1;fill-rule:nonzero;stroke:none;stroke-width:.0230338" transform="matrix(15.31563 0 0 -15.31563 104.914 50.454)"/></g><g style="stroke-width:.0230338"><path d="M0 0h-.949C1.33-1.844.355-4.494-3.244-5.936h1.806c2.025 0 2.834.569 3.048 1.689.203 1.057-.314 1.305-.929 1.419l.014.058c.858-.006 1.304.593 1.441 1.299C2.347-.377 1.748 0 0 0" style="fill:#19255f;fill-opacity:1;fill-rule:nonzero;stroke:none;stroke-width:.0230338" transform="matrix(15.31563 0 0 -15.31563 138.02 40.977)"/></g><g style="stroke-width:.0230338"><path d="M0 0a1.177 1.177 0 1 1 .001 2.355A1.177 1.177 0 0 1 0 0" style="fill:#f1511b;fill-opacity:1;fill-rule:nonzero;stroke:none;stroke-width:.0230338" transform="matrix(15.31563 0 0 -15.31563 103.076 44.788)"/></g></g></svg>